<svg width="48" height="48" viewBox="0 0 48 48" fill="none" xmlns="http://www.w3.org/2000/svg">
<path d="M37.721 30L43.265 13.368L41.367 12.735L36.279 28H17.721L10.721 7H5V9H9.279L15.929 28.948L11.461 39H39V37H14.539L17.65 30H37.721Z" fill="black"/>
<path d="M20 44C21.1046 44 22 43.1046 22 42C22 40.8954 21.1046 40 20 40C18.8954 40 18 40.8954 18 42C18 43.1046 18.8954 44 20 44Z" fill="black"/>
<path d="M32 44C33.1046 44 34 43.1046 34 42C34 40.8954 33.1046 40 32 40C30.8954 40 30 40.8954 30 42C30 43.1046 30.8954 44 32 44Z" fill="black"/>
<path d="M26 5V11H20V13H26V19H28V13H34V11H28V5H26Z" fill="black"/>
</svg>
